<?xml version="1.0" encoding="UTF-8" standalone="no"?>
<!DOCTYPE svg PUBLIC "-//W3C//DTD SVG 1.1//EN"
 "http://www.w3.org/Graphics/SVG/1.1/DTD/svg11.dtd">
<!-- Generated by graphviz version 2.38.0 (20140413.2041)
 -->
<!-- Title: PLOTINA GEP assessment tool Pages: 1 -->
<svg width="928pt" height="654pt"
 viewBox="0.00 0.00 927.50 653.50" xmlns="http://www.w3.org/2000/svg" xmlns:xlink="http://www.w3.org/1999/xlink">
<g id="graph0" class="graph" transform="scale(1 1) rotate(0) translate(242 630.5)">
<title>PLOTINA GEP assessment tool</title>
<polygon fill="white" stroke="none" points="-242,23 -242,-630.5 685.5,-630.5 685.5,23 -242,23"/>
<!-- Limesurvey -->
<g id="node1" class="node"><title>Limesurvey</title>
<polygon fill="orange" stroke="black" points="111.5,-626.5 -111.5,-626.5 -111.5,-573.5 111.5,-573.5 111.5,-626.5"/>
<text text-anchor="middle" x="0" y="-611.3" font-family="Helvetica,sans-Serif" font-size="14.00">Limesurvey instance &gt;= 2.62</text>
<text text-anchor="middle" x="0" y="-596.3" font-family="Helvetica,sans-Serif" font-size="14.00">with API enabled</text>
<text text-anchor="middle" x="0" y="-581.3" font-family="Helvetica,sans-Serif" font-size="14.00">(Self&#45;hosted or SaaS)</text>
</g>
<!-- Python -->
<g id="node3" class="node"><title>Python</title>
<polygon fill="lightblue" stroke="black" points="118.5,-469 -118.5,-469 -118.5,-431 118.5,-431 118.5,-469"/>
<text text-anchor="middle" x="0" y="-453.8" font-family="Helvetica,sans-Serif" font-size="14.00">Simple python based webserver</text>
<text text-anchor="middle" x="0" y="-438.8" font-family="Helvetica,sans-Serif" font-size="14.00">running on standalone machine</text>
</g>
<!-- Limesurvey&#45;&gt;Python -->
<g id="edge2" class="edge"><title>Limesurvey&#45;&gt;Python</title>
<path fill="none" stroke="black" d="M0,-573.183C0,-546.848 0,-506.768 0,-479.534"/>
<polygon fill="black" stroke="black" points="3.5001,-479.43 0,-469.43 -3.4999,-479.43 3.5001,-479.43"/>
<text text-anchor="middle" x="-119" y="-530.158" font-family="Times,serif" font-size="14.00">retrieve questions and responses</text>
</g>
<!-- RPOAdminUser -->
<g id="node2" class="node"><title>RPOAdminUser</title>
<polygon fill="yellow" stroke="black" points="681.5,-618 518.5,-618 518.5,-582 681.5,-582 681.5,-618"/>
<text text-anchor="middle" x="600" y="-596.3" font-family="Helvetica,sans-Serif" font-size="14.00">RPO statistics person</text>
</g>
<!-- RPOAdminUser&#45;&gt;Limesurvey -->
<g id="edge1" class="edge"><title>RPOAdminUser&#45;&gt;Limesurvey</title>
<path fill="none" stroke="black" d="M518.457,-600C416.26,-600 240.191,-600 121.949,-600"/>
<polygon fill="black" stroke="black" points="121.761,-596.5 111.761,-600 121.761,-603.5 121.761,-596.5"/>
<text text-anchor="middle" x="239.703" y="-603.8" font-family="Times,serif" font-size="14.00">enter aggregated data</text>
</g>
<!-- VisualizationData -->
<g id="node5" class="node"><title>VisualizationData</title>
<polygon fill="lightgreen" stroke="black" points="87,-318 -87,-318 -87,-282 87,-282 87,-318"/>
<text text-anchor="middle" x="0" y="-296.3" font-family="Helvetica,sans-Serif" font-size="14.00">visualization_data.json</text>
</g>
<!-- Python&#45;&gt;VisualizationData -->
<g id="edge5" class="edge"><title>Python&#45;&gt;VisualizationData</title>
<path fill="none" stroke="black" d="M0,-430.697C0,-404.764 0,-358.476 0,-328.519"/>
<polygon fill="black" stroke="black" points="3.5001,-328.29 0,-318.29 -3.4999,-328.29 3.5001,-328.29"/>
<text text-anchor="middle" x="-23.5" y="-383.408" font-family="Times,serif" font-size="14.00">export</text>
</g>
<!-- DataManager -->
<g id="node4" class="node"><title>DataManager</title>
<polygon fill="yellow" stroke="black" points="673.5,-468 526.5,-468 526.5,-432 673.5,-432 673.5,-468"/>
<text text-anchor="middle" x="600" y="-446.3" font-family="Helvetica,sans-Serif" font-size="14.00">RPO data manager</text>
</g>
<!-- DataManager&#45;&gt;Python -->
<g id="edge3" class="edge"><title>DataManager&#45;&gt;Python</title>
<path fill="none" stroke="black" d="M526.428,-450C427.509,-450 250.066,-450 128.769,-450"/>
<polygon fill="black" stroke="black" points="128.675,-446.5 118.675,-450 128.675,-453.5 128.675,-446.5"/>
<text text-anchor="middle" x="393.849" y="-438.8" font-family="Times,serif" font-size="14.00">enter custom formulas for indicators</text>
<text text-anchor="middle" x="393.849" y="-423.8" font-family="Times,serif" font-size="14.00">and select responses to export</text>
</g>
<!-- IndicatorDescriptions -->
<g id="node6" class="node"><title>IndicatorDescriptions</title>
<polygon fill="lightgreen" stroke="black" points="399,-318 201,-318 201,-282 399,-282 399,-318"/>
<text text-anchor="middle" x="300" y="-296.3" font-family="Helvetica,sans-Serif" font-size="14.00">indicator_descriptions.json</text>
</g>
<!-- DataManager&#45;&gt;IndicatorDescriptions -->
<g id="edge4" class="edge"><title>DataManager&#45;&gt;IndicatorDescriptions</title>
<path fill="none" stroke="black" d="M563.813,-431.906C509.08,-404.54 405.302,-352.651 345.518,-322.759"/>
<polygon fill="black" stroke="black" points="346.825,-319.499 336.315,-318.158 343.694,-325.76 346.825,-319.499"/>
<text text-anchor="middle" x="440.666" y="-381.133" font-family="Times,serif" font-size="14.00">edit</text>
</g>
<!-- Visualization -->
<g id="node8" class="node"><title>Visualization</title>
<polygon fill="lightgreen" stroke="black" points="136.5,-19 -136.5,-19 -136.5,19 136.5,19 136.5,-19"/>
<text text-anchor="middle" x="0" y="-3.8" font-family="Helvetica,sans-Serif" font-size="14.00">Visualization</text>
<text text-anchor="middle" x="0" y="11.2" font-family="Helvetica,sans-Serif" font-size="14.00">static webcontent (html, css, js, json)</text>
</g>
<!-- VisualizationData&#45;&gt;Visualization -->
<g id="edge6" class="edge"><title>VisualizationData&#45;&gt;Visualization</title>
<path fill="none" stroke="black" d="M0,-281.685C0,-231.401 0,-90.8734 0,-29.4086"/>
<polygon fill="black" stroke="black" points="3.5001,-29.229 0,-19.229 -3.4999,-29.229 3.5001,-29.229"/>
<text text-anchor="middle" x="-13.5" y="-159.347" font-family="Times,serif" font-size="14.00">add</text>
</g>
<!-- IndicatorDescriptions&#45;&gt;Python -->
<g id="edge9" class="edge"><title>IndicatorDescriptions&#45;&gt;Python</title>
<path fill="none" stroke="black" d="M263.813,-318.094C209.671,-345.164 107.54,-396.23 47.4724,-426.264"/>
<polygon fill="black" stroke="black" points="45.586,-423.294 38.207,-430.897 48.7165,-429.555 45.586,-423.294"/>
</g>
<!-- VisualizationSettings -->
<g id="node7" class="node"><title>VisualizationSettings</title>
<polygon fill="lightgreen" stroke="black" points="399,-184.5 201,-184.5 201,-115.5 399,-115.5 399,-184.5"/>
<text text-anchor="middle" x="300" y="-169.3" font-family="Helvetica,sans-Serif" font-size="14.00">visualization_settings.json</text>
<text text-anchor="middle" x="300" y="-138.3" font-family="Helvetica,sans-Serif" font-size="14.00">contains default indicator</text>
<text text-anchor="middle" x="300" y="-123.3" font-family="Helvetica,sans-Serif" font-size="14.00">weights for later reuse)</text>
</g>
<!-- VisualizationSettings&#45;&gt;Visualization -->
<g id="edge8" class="edge"><title>VisualizationSettings&#45;&gt;Visualization</title>
<path fill="none" stroke="black" d="M230.797,-115.399C174.55,-87.275 96.6979,-48.349 47.344,-23.672"/>
<polygon fill="black" stroke="black" points="48.6796,-20.4267 38.1701,-19.085 45.5491,-26.6877 48.6796,-20.4267"/>
<text text-anchor="middle" x="125.571" y="-73.3353" font-family="Times,serif" font-size="14.00">add</text>
</g>
<!-- VisUser -->
<g id="node9" class="node"><title>VisUser</title>
<polygon fill="yellow" stroke="black" points="670,-18 530,-18 530,18 670,18 670,-18"/>
<text text-anchor="middle" x="600" y="3.7" font-family="Helvetica,sans-Serif" font-size="14.00">Visualization user</text>
</g>
<!-- VisUser&#45;&gt;Visualization -->
<g id="edge7" class="edge"><title>VisUser&#45;&gt;Visualization</title>
<path fill="none" stroke="black" d="M529.998,-0C436.563,-0 268.741,-0 146.921,-0"/>
<polygon fill="black" stroke="black" points="146.758,3.4999 136.758,-0 146.758,-3.5001 146.758,3.4999"/>
<text text-anchor="middle" x="321.459" y="-3.8" font-family="Times,serif" font-size="14.00">view</text>
</g>
</g>
</svg>
