<?xml version="1.0" standalone="no"?>
<!DOCTYPE svg PUBLIC "-//W3C//DTD SVG 20010904//EN"
 "http://www.w3.org/TR/2001/REC-SVG-20010904/DTD/svg10.dtd">
<svg version="1.0" xmlns="http://www.w3.org/2000/svg"
 width="2083.000000pt" height="2083.000000pt" viewBox="0 0 2083.000000 2083.000000"
 preserveAspectRatio="xMidYMid meet">
<metadata>
Created by potrace 1.11, written by Peter Selinger 2001-2013
</metadata>
<g transform="translate(0.000000,2083.000000) scale(0.100000,-0.100000)"
fill="#000000" stroke="none">
<path d="M10365 18552 c-27 -11 -156 -80 -285 -154 -309 -178 -679 -383 -1233
-685 -504 -274 -561 -308 -650 -396 -130 -128 -141 -149 -447 -822 -349 -765
-630 -1356 -750 -1576 -275 -502 -562 -897 -915 -1258 -427 -437 -874 -757
-1449 -1036 -594 -289 -1266 -482 -1901 -546 -156 -16 -539 -16 -685 0 -239
26 -400 57 -875 172 -203 49 -378 91 -388 93 -16 4 -17 -6 -15 -126 l3 -131
110 -32 c61 -18 207 -64 325 -103 765 -252 1426 -375 2095 -389 508 -10 907
34 1405 158 620 154 1205 405 1705 733 265 174 281 186 1285 981 1215 962
1348 1064 1705 1300 775 515 1491 821 2366 1014 609 134 1211 193 1979 193
505 0 861 -18 1434 -73 115 -11 211 -17 214 -14 15 14 -73 66 -633 373 -1032
565 -2758 1523 -3670 2037 -237 133 -455 255 -485 270 -73 37 -173 44 -245 17z"/>
<path d="M7415 16919 c-1667 -906 -6772 -3730 -6845 -3786 -71 -55 -141 -124
-151 -150 -15 -40 0 -71 64 -129 91 -82 148 -116 306 -183 383 -164 800 -272
1231 -317 188 -19 619 -14 800 10 369 50 793 155 1175 293 1012 364 1895 1027
2431 1823 131 194 178 278 345 611 248 497 919 1921 919 1951 0 10 -3 18 -8
18 -4 0 -124 -64 -267 -141z"/>
<path d="M13255 15669 c-1186 -66 -2105 -300 -3020 -768 -611 -313 -946 -551
-2275 -1620 -761 -613 -927 -739 -1270 -970 -619 -417 -1191 -675 -1862 -840
-478 -118 -808 -160 -1319 -168 -453 -7 -776 15 -1170 82 -421 71 -692 141
-1399 360 -80 24 -151 45 -157 45 -10 0 -13 -89 -13 -413 l0 -414 80 -17 c44
-9 147 -41 228 -70 576 -208 1214 -333 1912 -376 215 -13 813 -13 1033 0 879
53 2026 245 2882 481 764 211 1551 521 2215 874 341 180 514 283 1150 680
1111 694 1512 912 1971 1070 568 196 1157 314 1819 367 202 16 829 16 1040 0
504 -39 886 -108 1315 -239 957 -292 1916 -897 2905 -1835 242 -229 674 -681
771 -807 15 -19 31 -31 38 -27 8 5 11 182 11 635 0 619 0 629 21 654 11 15 38
31 62 38 147 39 242 140 283 302 46 178 -28 334 -219 461 -45 30 -649 369
-1342 754 -1995 1107 -2575 1426 -2655 1459 -251 104 -1010 235 -1640 283
-393 30 -1044 39 -1395 19z"/>
<path d="M14340 13713 c-930 -64 -1539 -186 -2152 -432 -475 -190 -870 -408
-1633 -898 -1268 -815 -2062 -1205 -3138 -1544 -1270 -399 -2884 -641 -4102
-615 -890 18 -1526 120 -2240 358 l-270 90 -90 -4 c-73 -4 -100 -9 -143 -32
-188 -96 -251 -330 -147 -543 43 -86 111 -152 193 -185 l57 -23 9735 -3 c8706
-2 9741 0 9794 13 238 61 318 191 226 363 -47 88 -430 550 -715 862 -1019
1118 -2189 1939 -3302 2320 -413 141 -816 227 -1250 265 -150 13 -675 19 -823
8z"/>
<path d="M1278 9437 c-103 -39 -166 -97 -216 -197 -24 -50 -27 -66 -27 -165 0
-98 3 -116 26 -165 39 -82 90 -135 167 -172 60 -30 75 -33 152 -33 128 1 218
48 285 148 61 93 80 216 50 332 -41 157 -160 254 -320 261 -52 3 -93 0 -117
-9z"/>
<path d="M2783 9436 c-96 -31 -187 -118 -224 -214 -31 -80 -31 -214 0 -294 29
-76 106 -159 179 -195 50 -24 68 -28 147 -28 77 1 98 5 146 28 66 32 142 108
172 175 19 40 22 65 22 167 0 113 -2 123 -29 178 -35 69 -109 140 -174 169
-59 27 -179 34 -239 14z"/>
<path d="M4288 9437 c-103 -39 -167 -97 -216 -197 -24 -49 -27 -66 -27 -165 0
-98 3 -116 26 -165 39 -82 90 -135 167 -172 60 -30 76 -33 152 -33 76 0 93 3
152 33 119 58 185 163 195 307 9 123 -40 254 -119 321 -62 52 -127 76 -213 80
-52 3 -93 0 -117 -9z"/>
<path d="M5801 9436 c-102 -33 -197 -128 -237 -236 -11 -28 -18 -77 -18 -130
-1 -77 2 -92 32 -152 38 -78 106 -144 190 -185 48 -23 70 -27 142 -27 72 0 94
4 147 28 75 34 134 94 171 174 24 51 27 69 27 167 0 98 -3 116 -27 167 -35 75
-98 142 -166 175 -67 33 -190 42 -261 19z"/>
<path d="M7309 9434 c-64 -22 -138 -80 -177 -138 -47 -71 -65 -141 -60 -245 2
-73 8 -96 36 -153 38 -77 92 -130 171 -167 79 -37 201 -37 281 0 80 37 124 81
164 159 96 192 31 426 -144 519 -52 28 -75 34 -144 37 -57 3 -95 -1 -127 -12z"/>
<path d="M8825 9437 c-100 -34 -168 -94 -217 -195 -31 -62 -33 -74 -33 -167 0
-91 3 -106 31 -165 38 -79 97 -140 172 -177 50 -25 68 -28 147 -27 69 0 101 5
137 22 67 30 134 96 171 167 31 57 32 65 32 175 0 106 -2 120 -29 177 -33 73
-104 144 -174 175 -58 26 -180 34 -237 15z"/>
<path d="M10319 9434 c-64 -22 -138 -80 -177 -138 -48 -72 -65 -142 -60 -246
3 -73 9 -98 36 -153 38 -76 92 -129 171 -165 46 -22 71 -27 141 -27 76 0 92 3
152 33 78 38 120 82 162 172 28 59 31 74 31 165 0 91 -3 106 -31 165 -41 87
-80 130 -156 170 -54 29 -75 34 -143 37 -54 2 -95 -2 -126 -13z"/>
<path d="M11835 9437 c-132 -44 -221 -149 -246 -290 -15 -82 -2 -183 32 -249
32 -62 105 -135 168 -165 49 -24 68 -28 146 -28 78 0 97 4 146 28 67 32 142
109 172 175 19 40 22 65 22 167 0 113 -2 123 -29 178 -35 69 -109 140 -174
169 -58 26 -180 34 -237 15z"/>
<path d="M13338 9437 c-103 -39 -172 -102 -217 -197 -23 -49 -26 -67 -26 -165
0 -104 2 -114 33 -177 38 -77 92 -130 171 -166 47 -22 70 -27 141 -26 128 0
218 46 285 147 73 111 84 269 27 390 -39 84 -79 127 -153 167 -51 27 -74 33
-143 36 -53 3 -93 0 -118 -9z"/>
<path d="M14853 9432 c-102 -37 -161 -92 -211 -200 -23 -49 -26 -70 -27 -157
0 -91 3 -106 31 -165 38 -79 97 -140 172 -177 49 -24 69 -28 142 -28 73 0 94
4 147 29 75 34 134 95 171 174 24 51 27 69 27 167 0 98 -3 116 -27 167 -35 75
-98 142 -165 175 -73 35 -184 42 -260 15z"/>
<path d="M16363 9436 c-89 -29 -160 -92 -210 -188 -26 -49 -28 -62 -28 -168 0
-110 2 -118 33 -182 38 -77 92 -130 171 -166 46 -22 71 -27 141 -27 73 0 93 4
142 28 77 38 134 96 171 175 29 61 32 76 32 167 0 91 -3 106 -32 167 -61 129
-164 199 -303 205 -45 2 -92 -3 -117 -11z"/>
<path d="M17885 9441 c-97 -25 -181 -99 -228 -199 -29 -61 -32 -76 -32 -167 0
-91 3 -106 32 -167 57 -120 157 -193 284 -204 151 -15 281 63 348 206 23 49
26 67 26 165 0 98 -3 116 -27 167 -59 126 -165 199 -298 204 -41 2 -88 0 -105
-5z"/>
<path d="M19405 9437 c-100 -34 -172 -98 -219 -197 -28 -59 -31 -74 -31 -165
0 -91 3 -106 32 -167 37 -79 94 -137 171 -175 49 -24 69 -28 142 -28 70 0 95
5 141 27 79 36 133 89 171 166 31 63 33 73 33 177 0 98 -3 116 -26 166 -36 77
-87 130 -161 169 -52 28 -75 34 -138 37 -44 2 -91 -3 -115 -10z"/>
<path d="M7380 7064 c-236 -30 -449 -109 -645 -239 -357 -237 -612 -713 -707
-1316 -30 -196 -33 -678 -5 -859 68 -434 216 -772 466 -1065 366 -429 931
-580 1480 -396 190 64 352 163 500 305 195 190 339 420 449 721 155 424 181
991 71 1503 -51 238 -171 526 -295 712 -218 328 -532 548 -876 615 -81 16
-363 28 -438 19z m390 -354 c104 -26 245 -92 326 -153 180 -136 337 -369 432
-638 114 -322 156 -777 111 -1184 -58 -518 -254 -884 -595 -1111 -168 -112
-325 -158 -539 -158 -115 0 -155 4 -225 22 -330 89 -620 377 -754 750 -89 249
-134 593 -122 942 13 400 67 659 191 916 160 330 450 570 763 629 105 20 300
13 412 -15z"/>
<path d="M370 5090 l0 -1910 175 0 175 0 0 865 0 865 469 0 c466 0 603 6 756
35 320 61 637 252 793 478 66 96 96 158 129 264 25 81 27 102 27 273 1 165 -2
194 -22 265 -75 259 -276 496 -529 624 -143 72 -327 121 -527 140 -65 7 -381
11 -778 11 l-668 0 0 -1910z m1419 1561 c132 -22 261 -60 349 -102 67 -32 102
-58 167 -122 136 -135 188 -264 189 -467 0 -198 -53 -336 -181 -470 -86 -91
-153 -133 -281 -176 -187 -63 -232 -67 -799 -72 l-513 -4 0 717 0 717 498 -5
c319 -3 524 -9 571 -16z"/>
<path d="M3740 5090 l0 -1910 1065 0 1065 0 0 190 0 190 -885 0 -885 0 0 1720
0 1720 -180 0 -180 0 0 -1910z"/>
<path d="M9240 6815 l0 -185 585 0 585 0 0 -1725 0 -1725 180 0 180 0 0 1725
0 1725 585 0 585 0 0 185 0 185 -1350 0 -1350 0 0 -185z"/>
<path d="M12730 5090 l0 -1910 175 0 175 0 0 1910 0 1910 -175 0 -175 0 0
-1910z"/>
<path d="M14240 5090 l0 -1910 175 0 175 0 0 1736 c0 954 4 1733 8 1730 5 -3
460 -784 1013 -1735 l1004 -1730 178 -1 177 0 0 1910 0 1910 -175 0 -175 0 -2
-1557 -3 -1557 -909 1557 -910 1557 -278 0 -278 0 0 -1910z"/>
<path d="M18681 6968 c-69 -219 -1181 -3778 -1181 -3783 0 -3 82 -4 182 -3
l181 3 182 580 182 580 748 0 748 0 181 -582 181 -583 182 0 182 0 -14 43
c-11 34 -1143 3697 -1161 3760 -5 16 -28 17 -294 17 l-288 0 -11 -32z m613
-1239 c168 -543 306 -990 306 -993 0 -3 -282 -6 -626 -6 -497 0 -625 3 -622
13 3 6 144 456 314 999 170 543 312 984 316 980 3 -4 144 -451 312 -993z"/>
</g>
</svg>
